<svg width="12" height="12" viewBox="0 0 12 12" fill="none" xmlns="http://www.w3.org/2000/svg">
<path fill-rule="evenodd" clip-rule="evenodd" d="M9.97011 6.56746C10.2706 6.56746 10.514 6.81148 10.514 7.11096V11.1697C10.514 11.5305 10.8083 11.8249 11.1691 11.8249H11.8242V5.25691H7.11124C6.81073 5.25691 6.5674 5.0135 6.5674 4.71334V1.85419C6.5674 1.55369 6.8108 1.31062 7.11124 1.31062H11.1691C11.5308 1.31062 11.8242 1.01685 11.8242 0.655176V0H5.25711V4.71327C5.25711 5.01343 5.01371 5.25684 4.71327 5.25684H1.85446C1.55396 5.25684 1.31062 5.01343 1.31062 4.71327V0.655176C1.31062 0.293772 1.01624 0 0.655449 0H0V6.56746H4.71327C5.01377 6.56746 5.25711 6.81148 5.25711 7.11096V9.97073C5.25711 10.2705 5.01371 10.5146 4.71327 10.5146H0.655449C0.293705 10.5146 0 10.808 0 11.1697V11.8248H6.56746V7.1109C6.56746 6.81141 6.81087 6.5674 7.1113 6.5674H9.97011V6.56746Z" fill="white"/>
</svg>
